<?xml version="1.0" encoding="UTF-8" standalone="no"?>
<svg xmlns="http://www.w3.org/2000/svg" version="1.1" width="232" height="50">
	<g transform="translate(0,-1002.3622)" style="fill:#ffffff">
		<rect width="232" height="50" x="0" y="0" transform="translate(0,1002.3622)" style="fill:#000000"/>
		<path d="m 12.202,1042.8115 11.397853,0 c 4.403153,-0.1008 8.091394,-1.5904 11.064732,-4.4689 2.973288,-2.8785 4.519309,-6.5411 4.638066,-10.9879 -0.116195,-4.4467 -1.65709,-8.1093 -4.622691,-10.9878 -2.965651,-2.8785 -6.659016,-4.3682 -11.080107,-4.469 l -11.397853,0 z m 8.035896,-24.1077 1.885976,0 c 2.627367,0.015 4.742255,0.7645 6.344668,2.2499 1.602376,1.4854 2.425781,3.6191 2.470218,6.401 -0.07092,2.9973 -0.954112,5.1924 -2.649591,6.5856 -1.695516,1.3931 -3.777945,2.0815 -6.247294,2.0653 l -1.803977,0 z"/>
		<path d="m 53.067974,1011.8979 -8.035896,0 0,30.9136 8.035896,0 z"/>
		<path d="m 75.207855,1025.5507 0,6.314 6.559915,0 c -0.195625,1.7843 -0.880658,3.1253 -2.055099,4.023 -1.174485,0.8978 -2.648756,1.347 -4.422817,1.3479 -2.653877,-0.1034 -4.674807,-1.1164 -6.062797,-3.0391 -1.388013,-1.9227 -2.086712,-4.1349 -2.096098,-6.6368 0.0043,-2.4693 0.682461,-4.685 2.0346,-6.647 1.352116,-1.962 3.352546,-2.9989 6.001296,-3.1109 1.626294,0.021 3.006608,0.4716 4.140947,1.353 1.134296,0.8815 1.981618,2.0705 2.541967,3.567 l 7.625902,-3.198 c -1.349596,-2.8896 -3.211654,-5.054 -5.586178,-6.4933 -2.374577,-1.4392 -5.159122,-2.1584 -8.353642,-2.1576 -5.057469,0.066 -9.097622,1.5845 -12.12047,4.5561 -3.02286,2.9716 -4.572297,7.0015 -4.648314,12.0897 0.07944,4.9311 1.611789,8.8653 4.597066,11.8027 2.985266,2.9375 6.946836,4.4425 11.884721,4.5151 2.601738,0.011 4.993372,-0.4723 7.174908,-1.4503 2.181487,-0.9781 4.040128,-2.5172 5.575928,-4.6176 1.328181,-1.9133 2.187461,-3.8676 2.577842,-5.8629 0.390316,-1.9953 0.583355,-4.1136 0.579118,-6.355 z"/>
		<path d="m 104.87461,1011.8979 -8.035892,0 0,30.9136 8.035892,0 z"/>
		<path d="m 124.43153,1018.7038 6.64191,0 0,-6.8059 -21.31972,0 0,6.8059 6.64191,0 0,24.1077 8.0359,0 z"/>
		<path d="m 154.93477,1037.4406 2.00898,5.3709 8.56889,0 -11.64385,-30.9136 -8.77389,0 -11.88985,30.9136 8.52789,0 2.13197,-5.3709 z m -2.17297,-6.1499 -6.68291,0 3.32095,-9.8399 0.082,0 z"/>
		<path d="m 178.06016,1011.8979 -8.03589,0 0,30.9136 17.67077,0 0,-6.8059 -9.63488,0 z"/>
		<path d="m 199.27585,1022.2278 -11.22185,0 0,9.2999 11.22185,0 0,11.2838 9.29988,0 0,-11.2838 11.22186,0 0,-9.2999 -11.22186,0 0,-11.2219 -9.29988,0 z"/>
	</g>
</svg>
